<mxfile host="app.diagrams.net" modified="2022-09-11T19:05:40.233Z" agent="5.0 (Windows NT 10.0; Win64; x64) AppleWebKit/537.36 (KHTML, like Gecko) Chrome/104.0.0.0 Safari/537.36" etag="AA5OuBMnhEIC9SyPhtgd" version="20.2.7" type="github">
  <diagram id="Qi11ooK_3K9PPtKa7FyJ" name="Page-1">
    <mxGraphModel dx="548" dy="686" grid="1" gridSize="10" guides="1" tooltips="1" connect="1" arrows="1" fold="1" page="1" pageScale="1" pageWidth="1100" pageHeight="850" math="0" shadow="0">
      <root>
        <mxCell id="0" />
        <mxCell id="1" parent="0" />
        <mxCell id="5hx_jm5w8YYzwUVdoSPh-1" value="&lt;h1&gt;Reconstruct BST&lt;/h1&gt;&lt;p&gt;&lt;/p&gt;&lt;ul&gt;&lt;li&gt;Pre-order traversal of a binary tree is a traversal technique that starts at the tree&#39;s root node and visits nodes in the following order:&lt;/li&gt;&lt;ul&gt;&lt;li&gt;current node&lt;/li&gt;&lt;li&gt;left subtree&lt;/li&gt;&lt;li&gt;right subtree&lt;/li&gt;&lt;/ul&gt;&lt;li&gt;Given a non-empty array of integers representing a pre-order traversal of a binary search tree (BST), write a function that creates the relevant BST and returns its root node&lt;/li&gt;&lt;/ul&gt;&lt;div&gt;&lt;br&gt;&lt;/div&gt;&lt;div&gt;Example&lt;/div&gt;&lt;div&gt;Input: preOrderTraversalValues = [10,4,2,1,5,17,19,18]&lt;/div&gt;&lt;p&gt;&lt;/p&gt;" style="text;html=1;strokeColor=none;fillColor=none;spacing=5;spacingTop=-20;whiteSpace=wrap;overflow=hidden;rounded=0;" vertex="1" parent="1">
          <mxGeometry x="30" y="50" width="460" height="240" as="geometry" />
        </mxCell>
        <mxCell id="5hx_jm5w8YYzwUVdoSPh-2" value="10" style="ellipse;whiteSpace=wrap;html=1;aspect=fixed;" vertex="1" parent="1">
          <mxGeometry x="220" y="310" width="35" height="35" as="geometry" />
        </mxCell>
        <mxCell id="5hx_jm5w8YYzwUVdoSPh-3" value="4" style="ellipse;whiteSpace=wrap;html=1;aspect=fixed;" vertex="1" parent="1">
          <mxGeometry x="172.5" y="370" width="35" height="35" as="geometry" />
        </mxCell>
        <mxCell id="5hx_jm5w8YYzwUVdoSPh-4" value="5" style="ellipse;whiteSpace=wrap;html=1;aspect=fixed;" vertex="1" parent="1">
          <mxGeometry x="207.5" y="430" width="35" height="35" as="geometry" />
        </mxCell>
        <mxCell id="5hx_jm5w8YYzwUVdoSPh-5" value="2" style="ellipse;whiteSpace=wrap;html=1;aspect=fixed;" vertex="1" parent="1">
          <mxGeometry x="140" y="430" width="35" height="35" as="geometry" />
        </mxCell>
        <mxCell id="5hx_jm5w8YYzwUVdoSPh-6" value="1" style="ellipse;whiteSpace=wrap;html=1;aspect=fixed;" vertex="1" parent="1">
          <mxGeometry x="105" y="490" width="35" height="35" as="geometry" />
        </mxCell>
        <mxCell id="5hx_jm5w8YYzwUVdoSPh-7" value="17" style="ellipse;whiteSpace=wrap;html=1;aspect=fixed;" vertex="1" parent="1">
          <mxGeometry x="277.5" y="370" width="35" height="35" as="geometry" />
        </mxCell>
        <mxCell id="5hx_jm5w8YYzwUVdoSPh-8" value="19" style="ellipse;whiteSpace=wrap;html=1;aspect=fixed;" vertex="1" parent="1">
          <mxGeometry x="315" y="430" width="35" height="35" as="geometry" />
        </mxCell>
        <mxCell id="5hx_jm5w8YYzwUVdoSPh-9" value="18" style="ellipse;whiteSpace=wrap;html=1;aspect=fixed;" vertex="1" parent="1">
          <mxGeometry x="280" y="490" width="35" height="35" as="geometry" />
        </mxCell>
        <mxCell id="5hx_jm5w8YYzwUVdoSPh-11" value="" style="endArrow=classic;html=1;rounded=0;exitX=0.5;exitY=1;exitDx=0;exitDy=0;entryX=0.5;entryY=0;entryDx=0;entryDy=0;" edge="1" parent="1" source="5hx_jm5w8YYzwUVdoSPh-2" target="5hx_jm5w8YYzwUVdoSPh-3">
          <mxGeometry width="50" height="50" relative="1" as="geometry">
            <mxPoint x="120" y="400" as="sourcePoint" />
            <mxPoint x="170" y="350" as="targetPoint" />
          </mxGeometry>
        </mxCell>
        <mxCell id="5hx_jm5w8YYzwUVdoSPh-12" value="" style="endArrow=classic;html=1;rounded=0;entryX=0.5;entryY=0;entryDx=0;entryDy=0;exitX=0.5;exitY=1;exitDx=0;exitDy=0;" edge="1" parent="1" source="5hx_jm5w8YYzwUVdoSPh-2" target="5hx_jm5w8YYzwUVdoSPh-7">
          <mxGeometry width="50" height="50" relative="1" as="geometry">
            <mxPoint x="240" y="340" as="sourcePoint" />
            <mxPoint x="200" y="380" as="targetPoint" />
          </mxGeometry>
        </mxCell>
        <mxCell id="5hx_jm5w8YYzwUVdoSPh-13" value="" style="endArrow=classic;html=1;rounded=0;exitX=0.5;exitY=1;exitDx=0;exitDy=0;entryX=0.5;entryY=0;entryDx=0;entryDy=0;" edge="1" parent="1" source="5hx_jm5w8YYzwUVdoSPh-3" target="5hx_jm5w8YYzwUVdoSPh-5">
          <mxGeometry width="50" height="50" relative="1" as="geometry">
            <mxPoint x="257.5" y="365" as="sourcePoint" />
            <mxPoint x="210" y="390" as="targetPoint" />
          </mxGeometry>
        </mxCell>
        <mxCell id="5hx_jm5w8YYzwUVdoSPh-14" value="" style="endArrow=classic;html=1;rounded=0;exitX=0.5;exitY=1;exitDx=0;exitDy=0;entryX=0.5;entryY=0;entryDx=0;entryDy=0;" edge="1" parent="1" source="5hx_jm5w8YYzwUVdoSPh-3" target="5hx_jm5w8YYzwUVdoSPh-4">
          <mxGeometry width="50" height="50" relative="1" as="geometry">
            <mxPoint x="267.5" y="375" as="sourcePoint" />
            <mxPoint x="220" y="400" as="targetPoint" />
          </mxGeometry>
        </mxCell>
        <mxCell id="5hx_jm5w8YYzwUVdoSPh-15" value="" style="endArrow=classic;html=1;rounded=0;exitX=0.5;exitY=1;exitDx=0;exitDy=0;entryX=0.5;entryY=0;entryDx=0;entryDy=0;" edge="1" parent="1" source="5hx_jm5w8YYzwUVdoSPh-5" target="5hx_jm5w8YYzwUVdoSPh-6">
          <mxGeometry width="50" height="50" relative="1" as="geometry">
            <mxPoint x="200" y="415" as="sourcePoint" />
            <mxPoint x="167.5" y="440" as="targetPoint" />
          </mxGeometry>
        </mxCell>
        <mxCell id="5hx_jm5w8YYzwUVdoSPh-16" value="" style="endArrow=classic;html=1;rounded=0;entryX=0.5;entryY=0;entryDx=0;entryDy=0;exitX=0.5;exitY=1;exitDx=0;exitDy=0;" edge="1" parent="1" source="5hx_jm5w8YYzwUVdoSPh-7" target="5hx_jm5w8YYzwUVdoSPh-8">
          <mxGeometry width="50" height="50" relative="1" as="geometry">
            <mxPoint x="210" y="430" as="sourcePoint" />
            <mxPoint x="177.5" y="450" as="targetPoint" />
          </mxGeometry>
        </mxCell>
        <mxCell id="5hx_jm5w8YYzwUVdoSPh-17" value="" style="endArrow=classic;html=1;rounded=0;exitX=0.5;exitY=1;exitDx=0;exitDy=0;entryX=0.5;entryY=0;entryDx=0;entryDy=0;" edge="1" parent="1" source="5hx_jm5w8YYzwUVdoSPh-8" target="5hx_jm5w8YYzwUVdoSPh-9">
          <mxGeometry width="50" height="50" relative="1" as="geometry">
            <mxPoint x="220" y="435" as="sourcePoint" />
            <mxPoint x="187.5" y="460" as="targetPoint" />
          </mxGeometry>
        </mxCell>
        <mxCell id="5hx_jm5w8YYzwUVdoSPh-18" value="&lt;h1&gt;Solution 1&lt;/h1&gt;&lt;p&gt;&lt;/p&gt;&lt;ul&gt;&lt;li&gt;&lt;br&gt;&lt;/li&gt;&lt;/ul&gt;&lt;p&gt;&lt;/p&gt;" style="text;html=1;strokeColor=none;fillColor=none;spacing=5;spacingTop=-20;whiteSpace=wrap;overflow=hidden;rounded=0;" vertex="1" parent="1">
          <mxGeometry x="30" y="590" width="430" height="200" as="geometry" />
        </mxCell>
      </root>
    </mxGraphModel>
  </diagram>
</mxfile>
